<?xml version="1.0" encoding="UTF-8"?>
<svg id="Layer_2" data-name="Layer 2" xmlns="http://www.w3.org/2000/svg" viewBox="0 0 296.23 48.76">
  <defs>
    <style>
      .cls-1 {
        fill: #f15a24;
      }

      .cls-2 {
        fill: #fff;
      }
    </style>
  </defs>
  <g id="Layer_1-2" data-name="Layer 1">
    <g>
      <g>
        <rect class="cls-1" x="33.94" y="40.04" width="7.41" height="4.36"/>
        <rect class="cls-1" y="11.37" width="14.66" height="26.44"/>
        <rect class="cls-1" x="33.94" y="4.57" width="7.41" height="4.57"/>
        <rect class="cls-1" x="16.89" y="40.04" width="14.82" height="8.72"/>
        <rect class="cls-1" x="7.33" y="4.57" width="7.33" height="4.57"/>
        <rect class="cls-1" x="7.33" y="40.04" width="7.33" height="4.36"/>
        <rect class="cls-1" x="16.89" width="14.82" height="9.13"/>
        <rect class="cls-1" x="33.94" y="11.37" width="14.82" height="26.44"/>
      </g>
      <g>
        <path class="cls-2" d="M86.48,24.77c0,2.85-.52,5.3-1.56,7.34-1.04,2.05-2.47,3.62-4.28,4.72-1.81,1.1-3.87,1.65-6.17,1.65s-4.37-.55-6.18-1.65c-1.81-1.1-3.24-2.67-4.28-4.72-1.04-2.05-1.56-4.5-1.56-7.34s.52-5.3,1.56-7.35c1.04-2.05,2.47-3.62,4.28-4.72,1.81-1.1,3.87-1.65,6.18-1.65s4.36.55,6.17,1.65c1.81,1.1,3.24,2.67,4.28,4.72,1.04,2.05,1.56,4.5,1.56,7.35ZM82.49,24.77c0-2.17-.35-4-1.05-5.49-.7-1.49-1.66-2.62-2.87-3.39-1.21-.77-2.58-1.15-4.11-1.15s-2.91.38-4.12,1.15c-1.21.77-2.16,1.9-2.86,3.39-.7,1.49-1.05,3.32-1.05,5.49s.35,4,1.05,5.49c.7,1.49,1.65,2.62,2.86,3.39,1.21.77,2.58,1.15,4.12,1.15s2.9-.38,4.11-1.15c1.21-.77,2.17-1.9,2.87-3.39.7-1.49,1.05-3.32,1.05-5.49Z"/>
        <path class="cls-2" d="M99.96,18.1v3.13h-11.31v-3.13h11.31ZM91.75,38.12V15.78c0-1.25.27-2.29.82-3.12.55-.83,1.27-1.45,2.18-1.86.9-.41,1.89-.62,2.95-.62.78,0,1.45.06,2.01.19s.97.24,1.24.35l-.91,3.15c-.18-.05-.42-.12-.7-.19-.29-.07-.63-.11-1.04-.11-.95,0-1.62.23-2.03.7-.4.47-.61,1.15-.61,2.03v21.82h-3.9Z"/>
        <path class="cls-2" d="M109.83,18.1v3.13h-11.31v-3.13h11.31ZM101.62,38.12V15.78c0-1.25.27-2.29.82-3.12.55-.83,1.27-1.45,2.18-1.86.9-.41,1.89-.62,2.95-.62.78,0,1.45.06,2.01.19s.97.24,1.24.35l-.91,3.15c-.18-.05-.42-.12-.7-.19-.29-.07-.63-.11-1.04-.11-.95,0-1.62.23-2.03.7-.4.47-.61,1.15-.61,2.03v21.82h-3.9Z"/>
        <path class="cls-2" d="M120.27,38.52c-1.97,0-3.67-.42-5.09-1.27-1.42-.85-2.52-2.04-3.28-3.58-.77-1.54-1.15-3.35-1.15-5.43s.38-3.86,1.15-5.42c.77-1.56,1.85-2.78,3.23-3.66,1.39-.88,3.01-1.32,4.87-1.32,1.13,0,2.22.19,3.28.56,1.06.37,2.01.96,2.85,1.76.84.8,1.51,1.84,1.99,3.11.49,1.27.73,2.82.73,4.63v1.38h-15.92v-2.92h12.1c0-1.03-.21-1.94-.63-2.73-.42-.8-1-1.42-1.75-1.88-.75-.46-1.63-.69-2.64-.69-1.09,0-2.05.27-2.86.8-.81.54-1.44,1.23-1.88,2.09-.44.86-.66,1.78-.66,2.78v2.28c0,1.34.24,2.48.71,3.42s1.14,1.65,1.99,2.14,1.85.74,2.98.74c.74,0,1.41-.11,2.02-.32.61-.21,1.13-.53,1.58-.96.44-.43.78-.95,1.02-1.58l3.69.67c-.3,1.09-.82,2.04-1.58,2.85s-1.71,1.44-2.85,1.89c-1.14.45-2.44.67-3.9.67Z"/>
        <path class="cls-2" d="M131.74,38.12v-20.02h3.77v3.18h.21c.37-1.08,1.01-1.93,1.94-2.55.93-.62,1.98-.93,3.15-.93.24,0,.53,0,.87.03.33.02.6.04.79.06v3.73c-.16-.04-.43-.09-.83-.15-.4-.06-.8-.08-1.2-.08-.92,0-1.74.19-2.46.58s-1.28.92-1.7,1.6c-.42.68-.63,1.46-.63,2.33v12.23h-3.9Z"/>
        <path class="cls-2" d="M152.77,46.04c-1.59,0-2.96-.21-4.1-.63-1.14-.42-2.07-.97-2.8-1.66s-1.26-1.44-1.62-2.25l3.35-1.38c.23.38.55.79.94,1.22.4.43.93.8,1.62,1.1.68.3,1.56.46,2.64.46,1.48,0,2.7-.36,3.66-1.08.96-.72,1.45-1.86,1.45-3.42v-3.94h-.25c-.23.43-.57.9-1.01,1.42-.44.52-1.04.97-1.81,1.36-.76.38-1.76.57-2.98.57-1.58,0-3-.37-4.27-1.11-1.26-.74-2.26-1.84-3-3.3-.73-1.46-1.1-3.25-1.1-5.38s.36-3.95,1.09-5.47c.73-1.52,1.72-2.69,2.99-3.5s2.71-1.22,4.31-1.22c1.24,0,2.25.21,3.01.62.76.41,1.36.89,1.79,1.44.43.55.76,1.03,1,1.45h.29v-3.25h3.82v20.46c0,1.72-.4,3.13-1.2,4.24-.8,1.1-1.88,1.92-3.24,2.45s-2.89.79-4.59.79ZM152.73,34.59c1.12,0,2.07-.26,2.85-.79.78-.53,1.37-1.28,1.77-2.27.4-.99.61-2.17.61-3.55s-.2-2.53-.6-3.56c-.4-1.03-.99-1.83-1.76-2.4-.77-.58-1.73-.87-2.87-.87s-2.15.3-2.93.91c-.78.6-1.37,1.42-1.77,2.46s-.59,2.19-.59,3.47.2,2.46.6,3.45c.4.99.99,1.76,1.78,2.32.79.56,1.76.83,2.91.83Z"/>
        <path class="cls-2" d="M165.56,38.12v-20.02h3.77v3.18h.21c.37-1.08,1.01-1.93,1.94-2.55.93-.62,1.98-.93,3.15-.93.24,0,.53,0,.87.03.33.02.6.04.79.06v3.73c-.16-.04-.43-.09-.83-.15-.4-.06-.8-.08-1.2-.08-.92,0-1.74.19-2.46.58s-1.28.92-1.7,1.6c-.42.68-.63,1.46-.63,2.33v12.23h-3.9Z"/>
        <path class="cls-2" d="M180.89,15.01c-.68,0-1.26-.23-1.74-.68-.48-.46-.72-1-.72-1.64s.24-1.19.72-1.65c.48-.46,1.06-.68,1.74-.68s1.26.23,1.74.68.72,1,.72,1.64-.24,1.19-.72,1.65-1.06.68-1.74.68ZM178.93,38.12v-20.02h3.9v20.02h-3.9Z"/>
        <path class="cls-2" d="M194.09,38.51c-1.62,0-3.06-.41-4.32-1.24-1.26-.83-2.26-2.02-2.97-3.56-.72-1.54-1.08-3.4-1.08-5.56s.36-4.01,1.09-5.55,1.72-2.72,2.99-3.53c1.27-.82,2.71-1.22,4.31-1.22,1.24,0,2.24.21,3,.62s1.35.89,1.77,1.44c.42.55.75,1.03.98,1.45h.23v-9.92h3.9v26.69h-3.81v-3.12h-.33c-.23.43-.57.91-1.01,1.46-.44.55-1.04,1.03-1.81,1.43s-1.76.61-2.97.61ZM194.95,35.19c1.12,0,2.07-.3,2.85-.89.78-.6,1.37-1.42,1.77-2.48.4-1.06.61-2.29.61-3.7s-.2-2.61-.6-3.65c-.4-1.04-.99-1.85-1.76-2.44-.77-.58-1.73-.87-2.87-.87s-2.15.3-2.93.91c-.78.61-1.37,1.44-1.77,2.49-.4,1.05-.59,2.24-.59,3.56s.2,2.54.6,3.61c.4,1.07.99,1.91,1.78,2.54.79.62,1.76.93,2.91.93Z"/>
      </g>
      <g>
        <path class="cls-2" d="M220.11,38.04h-9.46V11.34h9.54c2.69,0,5,.53,6.93,1.6,1.94,1.06,3.43,2.59,4.48,4.58,1.05,1.99,1.57,4.37,1.57,7.14s-.52,5.17-1.57,7.17c-1.05,2-2.55,3.53-4.5,4.6-1.95,1.07-4.28,1.6-6.99,1.6ZM216.29,33.2h3.58c1.67,0,3.07-.3,4.22-.89,1.14-.59,2-1.52,2.58-2.78s.87-2.88.87-4.87-.29-3.58-.87-4.84-1.44-2.17-2.57-2.76c-1.14-.59-2.54-.89-4.21-.89h-3.6v17.02Z"/>
        <path class="cls-2" d="M245.55,38.43c-2.02,0-3.77-.43-5.25-1.3-1.47-.86-2.61-2.07-3.41-3.62-.8-1.55-1.2-3.35-1.2-5.4s.4-3.88,1.2-5.43c.8-1.55,1.94-2.76,3.41-3.62,1.47-.86,3.22-1.3,5.25-1.3s3.77.43,5.25,1.3c1.47.86,2.61,2.07,3.41,3.62.8,1.55,1.2,3.36,1.2,5.43s-.4,3.85-1.2,5.4c-.8,1.55-1.94,2.76-3.41,3.62-1.47.87-3.22,1.3-5.25,1.3ZM245.58,34.13c.92,0,1.69-.26,2.31-.79.62-.53,1.08-1.24,1.4-2.16.32-.91.48-1.95.48-3.12s-.16-2.2-.48-3.12c-.32-.91-.78-1.63-1.4-2.16s-1.39-.79-2.31-.79-1.71.26-2.34.79c-.63.53-1.1,1.25-1.42,2.16-.32.91-.48,1.95-.48,3.12s.16,2.2.48,3.12c.32.91.79,1.63,1.42,2.16.63.53,1.41.79,2.34.79Z"/>
        <path class="cls-2" d="M267.34,38.43c-2.05,0-3.81-.44-5.29-1.31-1.47-.87-2.6-2.09-3.39-3.64-.79-1.56-1.18-3.35-1.18-5.37s.4-3.85,1.19-5.4c.79-1.55,1.93-2.76,3.4-3.64,1.47-.87,3.22-1.31,5.24-1.31,1.75,0,3.28.32,4.59.95,1.31.63,2.35,1.53,3.12,2.67.76,1.15,1.19,2.49,1.26,4.04h-5.24c-.15-1-.54-1.81-1.17-2.42-.63-.61-1.45-.92-2.47-.92-.86,0-1.61.23-2.25.7s-1.14,1.14-1.49,2.03c-.36.89-.53,1.96-.53,3.22s.18,2.36.53,3.26c.35.9.85,1.58,1.49,2.05.64.47,1.4.7,2.25.7.63,0,1.21-.13,1.71-.39s.93-.64,1.26-1.14c.33-.5.55-1.1.66-1.8h5.24c-.09,1.53-.5,2.87-1.24,4.03-.74,1.16-1.77,2.07-3.07,2.72-1.3.65-2.85.98-4.63.98Z"/>
        <path class="cls-2" d="M295.77,23.73l-5.08.31c-.09-.43-.27-.83-.56-1.18-.29-.35-.66-.63-1.13-.85-.47-.21-1.02-.32-1.66-.32-.86,0-1.59.18-2.18.54-.59.36-.89.84-.89,1.44,0,.48.19.88.57,1.21.38.33,1.04.59,1.97.79l3.62.73c1.95.4,3.4,1.04,4.35,1.93.96.89,1.43,2.05,1.43,3.49,0,1.31-.38,2.46-1.15,3.45-.77.99-1.82,1.76-3.15,2.31s-2.87.83-4.61.83c-2.65,0-4.76-.55-6.33-1.66-1.57-1.11-2.49-2.62-2.76-4.53l5.46-.29c.17.81.56,1.42,1.2,1.84.63.42,1.45.63,2.44.63s1.76-.19,2.35-.57.9-.87.91-1.47c0-.5-.22-.92-.64-1.25s-1.06-.58-1.93-.75l-3.47-.69c-1.96-.39-3.41-1.07-4.36-2.03-.95-.96-1.43-2.19-1.43-3.69,0-1.29.35-2.39,1.05-3.32.7-.93,1.69-1.65,2.96-2.15,1.27-.5,2.77-.76,4.48-.76,2.53,0,4.52.53,5.98,1.6,1.46,1.07,2.3,2.52,2.55,4.37Z"/>
      </g>
    </g>
  </g>
</svg>